<?xml version="1.0" encoding="utf-8"?>
<!-- Generator: Adobe Illustrator 21.0.2, SVG Export Plug-In . SVG Version: 6.00 Build 0)  -->
<svg version="1.1" id="Layer_1" xmlns="http://www.w3.org/2000/svg" xmlns:xlink="http://www.w3.org/1999/xlink" x="0px" y="0px"
	 viewBox="0 0 122 122" style="enable-background:new 0 0 122 122;" xml:space="preserve">
<style type="text/css">
	.st0{fill:#4D4D4D;}
	.st1{fill:#FFFFFF;}
</style>
<image style="display:none;overflow:visible;" width="122" height="122" xlink:href="avatar.jpg" >
</image>
<path class="st0" d="M61,0C27.3,0,0,27.3,0,61c0,33.7,27.3,61,61,61c33.7,0,61-27.3,61-61C122,27.3,94.7,0,61,0z M56.5,78.8
	C56.5,78.8,56.5,78.8,56.5,78.8C56.6,78.8,56.6,78.8,56.5,78.8c0.5,0.1,2.8,0.7,7.1,1.8c1.3,0.4,2.5,0.7,3.5,1
	c2.5,0.7,4.2,1.1,5,1.4c3.4,1,6,2.9,7.8,5.5c1.8,2.5,2.6,5.2,2.6,8.2c0,5.6-2.2,9.9-6.7,12.9c-3.9,2.6-8.8,3.9-14.7,3.9
	c-6.5,0-11.8-1.5-15.8-4.6c-4.4-3.4-6.8-8.2-6.8-14.6v-8.9h0.1c2.4,2.4,5.1,3.6,8.4,4.6v4.3c0,3.9,1.8,6.8,4.5,8.8
	c2.4,1.8,5.8,2.7,9.9,2.7c3.9,0,6.9-0.9,8.9-2.6c1.7-1.5,2.6-3.3,2.6-5.6c0-3.3-1.5-5.5-4.4-6.6c-0.1,0-0.2-0.1-0.5-0.2
	c-1.6-0.5-6.8-1.9-15.5-4.3C44.8,84.6,40.8,80,40.8,73c0-5,2-9,6.2-11.9c3.7-2.6,8.2-3.8,13.5-3.8h4.4c2.9,0,5.1-0.8,6.6-2.2
	c1.6-1.5,2.4-3.6,2.4-6.3c0-2.7-0.8-4.8-2.4-6.3c-1.6-1.4-3.8-2.2-6.6-2.2H52.1V33h11.5c2.3,0,4.2-0.3,5.6-1.5
	c1.5-1.3,2.2-3.3,2.2-5.6c0-4.9-2.6-7.5-7.9-7.5H47.2v35.7c-2,0.8-4.5,2.1-6.6,3.6c-0.8,0.6-1.1,0.9-1.8,2.1h-0.1V11.4h26.2
	c5,0,8.8,1,11.6,3.2c2.9,2.3,4.2,5.6,4.2,9.9c0,5.4-3,9.2-7.8,11.4v0.2C78.9,37.5,83,42.1,83,49.9c0,4.5-1.4,8-4.6,10.7
	c-3.1,2.6-7.6,3.9-13.4,4.1c-0.5,0-1.1-0.1-1.6-0.1h-3.4c-2.6,0-4.8,0.6-6.5,1.6c-2.2,1.2-3.3,3.2-3.3,5.6
	C50.2,75.2,52.3,77.5,56.5,78.8z"/>
<path class="st1" d="M79.9,88.4c1.8,2.5,2.6,5.2,2.6,8.2c0,5.6-2.2,9.9-6.7,12.9c-3.9,2.6-8.8,3.9-14.7,3.9
	c-6.5,0-11.8-1.5-15.8-4.6c-4.4-3.4-6.8-8.2-6.8-14.6v-8.9h0.1c2.4,2.4,5.1,3.6,8.4,4.6v4.3c0,3.9,1.8,6.8,4.5,8.8
	c2.4,1.8,5.8,2.7,9.9,2.7c3.9,0,6.9-0.9,8.9-2.6c1.7-1.5,2.6-3.3,2.6-5.6c0-3.3-1.5-5.5-4.4-6.6c-0.1,0-0.2-0.1-0.5-0.2
	c-1.6-0.5-6.8-1.9-15.5-4.3C44.8,84.6,40.8,80,40.8,73c0-5,2-9,6.2-11.9c3.7-2.6,8.2-3.8,13.5-3.8h4.4c2.9,0,5.1-0.8,6.6-2.2
	c1.6-1.5,2.4-3.6,2.4-6.3c0-2.7-0.8-4.8-2.4-6.3c-1.6-1.4-3.8-2.2-6.6-2.2H52.1V33h11.5c2.3,0,4.2-0.3,5.6-1.5
	c1.5-1.3,2.2-3.3,2.2-5.6c0-4.9-2.6-7.5-7.9-7.5H47.2v35.7c-2,0.8-4.5,2.1-6.6,3.6c-0.8,0.6-1.1,0.9-1.8,2.1h-0.1V11.4h26.2
	c5,0,8.8,1,11.6,3.2c2.9,2.3,4.2,5.6,4.2,9.9c0,5.4-3,9.2-7.8,11.4v0.2C78.9,37.5,83,42.1,83,49.9c0,4.5-1.4,8-4.6,10.7
	c-3.1,2.6-7.6,3.9-13.4,4.1c-0.5,0-1.1-0.1-1.6-0.1h-3.4c-2.6,0-4.8,0.6-6.5,1.6c-2.2,1.2-3.3,3.2-3.3,5.6c0,3.3,2.1,5.7,6.3,7
	c0,0,0,0,0,0c0,0,0,0,0.1,0c0.4,0.1,2.7,0.7,7,1.8c1.3,0.4,2.5,0.7,3.5,1c2.5,0.7,4.2,1.1,5,1.4C75.5,84,78.1,85.8,79.9,88.4z"/>
</svg>
