<?xml version="1.0" encoding="utf-8"?>
<!-- Generator: Adobe Illustrator 24.0.1, SVG Export Plug-In . SVG Version: 6.00 Build 0)  -->
<svg version="1.1" id="Layer_1" xmlns="http://www.w3.org/2000/svg" xmlns:xlink="http://www.w3.org/1999/xlink" x="0px" y="0px"
	 viewBox="0 0 122 122" style="enable-background:new 0 0 122 122;" xml:space="preserve">
<style type="text/css">
	.st0{display:none;}
	.st1{display:inline;fill:#F5F5F5;}
	.st2{display:inline;}
	.st3{fill:#3D3D3D;}
	.st4{fill:#FFFFFF;}
</style>
<g class="st0">
	<circle class="st1" cx="61" cy="61.1" r="60.8"/>
	<g id="ARC_2_" class="st2">
		<path class="st3" d="M51.9,65.6c0,1.8,1.2,3.4,3,3.9l13.8,3.7c4.4,1.2,7.5,5.2,7.5,9.8v0c0,6.7-5.4,12.2-12.2,12.2H58
			c-6.7,0-12.2-5.4-12.2-12.2v-7.5c1.7,1.7,3.8,3,6.1,3.7V83c0,3.4,2.7,6.1,6.1,6.1H64c3.4,0,6.1-2.7,6.1-6.1v0c0-1.8-1.2-3.4-3-3.9
			l-13.8-3.7c-4.4-1.2-7.5-5.2-7.5-9.8c0-5.6,4.5-10.1,10.1-10.1h10.1c2.2,0,4.1-1.8,4.1-4.1s-1.8-4.1-4.1-4.1H55.9v-6.1h10.1
			c2.2,0,4.1-1.8,4.1-4.1s-1.8-4.1-4.1-4.1H51.9V52c-2.3,0.7-4.4,2-6.1,3.7V27.1h20.3c2.7,0,5.2,1,7.1,2.9c4,3.9,4.1,10.3,0.1,14.3
			c1.9,1.9,2.9,4.4,2.9,7.1c0,5.6-4.5,10.1-10.1,10.1H55.9C53.7,61.6,51.9,63.4,51.9,65.6z"/>
	</g>
</g>
<g>
	<path class="st3" d="M61,0.2C27.4,0.2,0.2,27.4,0.2,61s27.2,60.8,60.8,60.8s60.8-27.2,60.8-60.8S94.6,0.2,61,0.2z M54.9,69.4
		l13.8,3.7c4.4,1.2,7.5,5.2,7.5,9.8v0c0,6.7-5.5,12.2-12.2,12.2H58c-6.7,0-12.2-5.5-12.2-12.2v-7.5c1.7,1.7,3.8,3,6.1,3.7v3.8
		c0,3.4,2.7,6.1,6.1,6.1H64c3.4,0,6.1-2.7,6.1-6.1v0c0-1.8-1.2-3.4-3-3.9l-13.8-3.7c-4.4-1.2-7.5-5.2-7.5-9.8
		c0-5.6,4.5-10.1,10.1-10.1h10.1c2.2,0,4.1-1.8,4.1-4c0-2.2-1.8-4.1-4.1-4.1H55.9v-6.1h10.1c2.2,0,4.1-1.8,4.1-4.1s-1.8-4-4.1-4
		H51.9v18.8c-2.3,0.7-4.4,2-6.1,3.7V26.9h20.3c2.6,0,5.2,1,7.1,2.9c4,3.9,4.1,10.3,0.1,14.3c1.9,1.9,2.9,4.4,2.9,7.1
		c0,5.6-4.5,10.1-10.1,10.1H55.9c-2.2,0-4.1,1.8-4.1,4C51.9,67.3,53.1,68.9,54.9,69.4z"/>
	<path class="st4" d="M76.2,82.9L76.2,82.9c0,6.7-5.5,12.2-12.2,12.2H58c-6.7,0-12.2-5.5-12.2-12.2v-7.5c1.7,1.7,3.8,3,6.1,3.7v3.8
		c0,3.4,2.7,6.1,6.1,6.1H64c3.4,0,6.1-2.7,6.1-6.1v0c0-1.8-1.2-3.4-3-3.9l-13.8-3.7c-4.4-1.2-7.5-5.2-7.5-9.8
		c0-5.6,4.5-10.1,10.1-10.1h10.1c2.2,0,4.1-1.8,4.1-4c0-2.2-1.8-4.1-4.1-4.1H55.9v-6.1h10.1c2.2,0,4.1-1.8,4.1-4.1s-1.8-4-4.1-4
		H51.9v18.8c-2.3,0.7-4.4,2-6.1,3.7V26.9h20.3c2.6,0,5.2,1,7.1,2.9c4,3.9,4.1,10.3,0.1,14.3c1.9,1.9,2.9,4.4,2.9,7.1
		c0,5.6-4.5,10.1-10.1,10.1H55.9c-2.2,0-4.1,1.8-4.1,4c0,1.8,1.2,3.5,3,3.9l13.8,3.7C73.1,74.3,76.2,78.3,76.2,82.9z"/>
</g>
</svg>
